<svg
  xmlns="http://www.w3.org/2000/svg"
  version="1.1"
  width="300"
  height="80"
  viewBox="0 0 600 80"
>
  <g transform="matrix(0.5031446540880503,0,0,0.5031446540880503,148.87377062497328,-0.08929021038472484)">
    <!-- First Group -->
    <g
      viewBox="0 0 396 105"
      data-background-color="#ffffff"
      preserveAspectRatio="xMidYMid meet"
      height="80"
      width="120"
    >
      <!-- Second Group -->
      <g
        id="tight-bounds"
        transform="matrix(1,0,0,1,0.24008861730862918,0.11719340112995269)"
      >
        <!-- Third Group -->
        <g viewBox="0 0 395.52 104.7656131977401" height="104.7656131977401" width="395.52">
          <!-- Fourth Group -->
          <g>
            <!-- Fifth Group -->
            <g>
              <!-- Sixth Group -->
              <g id="textblocktransform">
                <!-- Seventh Group -->
                <g
                  viewBox="0 0 395.52 104.7656131977401"
                  height="104.7656131977401"
                  width="395.52"
                  id="textblock"
                >
                  <!-- Eighth Group -->
                  <g>
                    <path
                      d="M394.594 22.47C392.735 11.596 387.435 8.572 387.435 8.572 371.165-2.628 350.86-0.214 332.619 1.395 300.414 1.46 268.339 3.853 236.208 5.136 168.767 5.332 100.749 2.113 33.643 10.051 27.339 12.487-6.54 10.53 1.121 23.862 3.129 29.408 10.456 35.563 10.232 40.653 11.236 41.544 12.631 39.5 13.226 40.783 15.309 44.241 18.711 42.61 21.501 44.654 17.614 50.114 20.403 54.659 23.062 59.422 18.377 60.662 12.371 60.075 9.675 64.185 9.396 67.165 7.89 66.599 6.235 66.469 5.026 66.382 2.59 66.708 2.999 67.643 4.394 70.841-1.594 72.689 2.162 75.821-0.422 79.214 3.948 82.15 3.353 85.826 3.278 86.565 3.687 87.196 4.338 87.37 7.22 88.305 3.018 90.132 3.464 92.111 33.029 105.639 65.104 96.287 95.394 102.508 103.259 98.158 97.346 104.052 100.489 103.138 102.943 102.073 104.728 106.488 107.499 103.986 107.927 103.269 107.276 101.572 108.8 101.899 109.6 102.073 110.307 102.029 110.418 101.029 110.586 99.528 109.117 100.463 108.726 99.68 112.947 95.722 111.906 105.139 115.866 104.748 115.68 103.595 114.528 101.942 116.889 102.16 119.232 100.507 119.306 99.136 121.389 102.856 121.463 103.66 121.835 104.226 122.43 104.617 128.938 100.572 135.409 106.053 142.233 104.226 146.417 102.225 150.433 105.313 154.672 104.552 156.16 103.943 157.666 102.856 159.098 104.682 176.632 105.074 195.319 103.443 211.943 104.748 256.364 102.312 303.836 105.748 350.674 102.529 361.719 101.29 373.192 99.528 383.958 98.114 383.958 98.114 392.679 94.243 392.679 76.843S394.538 61.619 394.817 47.765C395.096 33.91 396.398 33.345 394.538 22.47Z"
                      opacity="1"
                      fill="#21272d"
                      data-fill-palette-color="tertiary"
                    ></path>
                    <!-- Add other elements like <path> here -->
                  </g>
                </g>
              </g>
            </g>
          </g>
        </g>
      </g>
    </g>
  </g>
  <rect
    width="395.52"
    height="104.7656131977401"
    fill="none"
    stroke="none"
    visibility="hidden"
  ></rect>
</svg>